<?xml version="1.0" standalone="no"?><!DOCTYPE svg PUBLIC "-//W3C//DTD SVG 1.1//EN" "http://www.w3.org/Graphics/SVG/1.1/DTD/svg11.dtd"><svg t="1739238454128" class="icon" viewBox="0 0 1024 1024" version="1.1" xmlns="http://www.w3.org/2000/svg" p-id="9441" xmlns:xlink="http://www.w3.org/1999/xlink" width="200" height="200"><path d="M524.9 972.4c-1.7 0-3.4-0.2-5.1-0.6-11.4-2.8-18.4-14.4-15.6-25.8 18.5-75 21.7-154.6 9.5-236.5-1.7-11.7 6.3-22.5 18-24.2 11.7-1.7 22.5 6.3 24.2 18 13.1 87.5 9.6 172.6-10.3 253-2.4 9.6-11.1 16.1-20.7 16.1z" fill="#333333" p-id="9442"></path><path d="M600.9 901.1c19.3 29.6 58.9 38.1 88.5 18.8s73.9-82.1 54.6-111.8c-19.3-29.6-94.7-14.8-124.3 4.4-29.6 19.3-38.1 59-18.8 88.6z" fill="#A3F470" p-id="9443"></path><path d="M654.7 947.3c-26.6 0-52.6-13-68.1-36.9-24.3-37.5-13.7-87.8 23.8-112.1 17.7-11.5 46.6-20.6 73.7-23.2 35.7-3.4 62 5 74.2 23.8s9.2 46.3-8.4 77.5c-13.4 23.7-33.5 46.4-51.2 57.9-13.6 8.8-28.9 13-44 13z m44.5-138.9c-3.7 0-7.7 0.2-11.8 0.6-21.3 2.1-45.4 9.4-58.4 17.9-10.5 6.8-17.7 17.3-20.3 29.6-2.6 12.3-0.3 24.8 6.5 35.3 6.8 10.5 17.3 17.7 29.6 20.3 12.3 2.6 24.8 0.3 35.3-6.5 13-8.5 29.5-27.4 40.1-46.1 10.4-18.4 14.2-34.9 9.5-42.1-3.7-5.7-15.2-9-30.5-9z" fill="#333333" p-id="9444"></path><path d="M470.3 896.8c-19.3 29.6-58.9 38.1-88.5 18.8s-73.9-82.1-54.6-111.8c19.3-29.6 94.7-14.8 124.3 4.4 29.6 19.3 38 59 18.8 88.6z" fill="#A3F470" p-id="9445"></path><path d="M416.5 943c-15.1 0-30.4-4.2-44-13.1-17.7-11.5-37.8-34.2-51.2-57.9-17.6-31.2-20.6-58.7-8.4-77.5 12.2-18.8 38.6-27.3 74.2-23.8 27.1 2.6 56 11.7 73.7 23.2 37.5 24.3 48.2 74.6 23.8 112.1-15.5 24-41.6 37-68.1 37zM372 804.1c-15.3 0-26.8 3.3-30.5 9-4.6 7.2-0.9 23.7 9.5 42.1 10.6 18.7 27 37.6 40.1 46.1 21.7 14.1 50.8 7.9 64.9-13.8 14.1-21.7 7.9-50.8-13.8-64.9-13-8.5-37.1-15.8-58.4-17.9-4.1-0.4-8.1-0.6-11.8-0.6z" fill="#333333" p-id="9446"></path><path d="M440.374375 538.020819a108.1 108.1 0 1 0 152.873818-152.879154 108.1 108.1 0 1 0-152.873818 152.879154Z" fill="#FFD146" p-id="9447"></path><path d="M516.8 589.9c-8.1 0-16.3-0.8-24.5-2.4-69.5-13.5-115-81-101.5-150.5 6.5-33.7 25.8-62.7 54.2-81.9 28.4-19.2 62.6-26.1 96.3-19.6 33.7 6.5 62.7 25.8 81.9 54.2 19.2 28.4 26.1 62.6 19.6 96.3-11.9 61.3-65.8 103.9-126 103.9z m0-216.2c-41.2 0-78 29.2-86.2 71.1-9.2 47.5 21.9 93.7 69.5 103 47.5 9.2 93.7-21.9 103-69.5 9.2-47.5-21.9-93.7-69.5-103-5.7-1-11.3-1.6-16.8-1.6z" fill="#333333" p-id="9448"></path><path d="M537.382559 355.458345a54 135.1 11 1 0 51.556591-265.235665 54 135.1 11 1 0-51.556591 265.235665Z" fill="#FFEA00" p-id="9449"></path><path d="M541.9 377.2c-2.8 0-5.6-0.3-8.5-0.8-31.5-6.1-42.9-42.1-46.8-63.1-5.6-29.6-4.7-66.8 2.7-104.9 7.4-38 20.5-72.9 36.8-98.2 11.5-17.9 35.6-47 67.1-40.9 31.5 6.1 42.9 42.1 46.8 63.1 5.6 29.6 4.7 66.8-2.7 104.9-7.4 38-20.5 72.9-36.8 98.2-10.6 16.2-31.4 41.7-58.6 41.7z m42.7-266.1c-2.5 0-11.6 4.8-22.8 22.2-13.3 20.6-24.5 50.9-30.8 83.3s-7.3 64.7-2.7 88.7c4 21.1 11 28.8 13.1 29.2 2.1 0.4 11.4-4.1 23.1-22.2 13.3-20.6 24.5-50.9 30.8-83.3s7.3-64.7 2.7-88.7c-4-21.1-11-28.8-13.1-29.2h-0.3z" fill="#333333" p-id="9450"></path><path d="M587.682485 380.011581a54 135.1 41.003 1 0 177.277827-203.913247 54 135.1 41.003 1 0-177.277827 203.913247Z" fill="#FFEA00" p-id="9451"></path><path d="M605.6 407.3c-11.2 0-22.4-3-31.9-11.2-24.2-21-16-57.9-9-78.1 9.9-28.5 29.4-60.2 54.8-89.5 25.4-29.2 54.2-52.9 81-66.7 19-9.7 54.4-22.9 78.6-1.9 24.2 21 16 57.9 9 78.1-9.9 28.5-29.4 60.2-54.8 89.5s-54.2 52.9-81 66.7c-11.6 5.9-29.2 13.1-46.7 13.1z m141.2-216c-4.9 0-13.8 1.8-26.9 8.5-21.8 11.2-46.7 31.9-68.3 56.7C630 281.4 613 309 605 332.1c-7.1 20.3-4.9 30.4-3.3 31.8 1.6 1.4 11.9 2.2 31.1-7.7 21.8-11.2 46.7-31.9 68.3-56.7 21.6-24.9 38.6-52.4 46.7-75.5 7.1-20.3 4.9-30.4 3.3-31.8-0.6-0.5-2-0.9-4.3-0.9z" fill="#333333" p-id="9452"></path><path d="M618.96615 426.371296a54 135.1 70.997 1 0 255.474512-87.981892 54 135.1 70.997 1 0-255.474512 87.981892Z" fill="#FFEA00" p-id="9453"></path><path d="M676.8 471.2c-3.1 0-6.1-0.1-9-0.2-21.3-1-58.6-7.3-69-37.6-10.4-30.3 15.1-58.2 31.2-72.1 22.8-19.7 55.5-37.5 92.2-50.1 36.6-12.6 73.4-18.8 103.5-17.3 21.3 1 58.6 7.3 69 37.6 10.4 30.3-15.1 58.2-31.2 72.1-22.8 19.7-55.5 37.5-92.2 50.1-33.1 11.3-66.2 17.5-94.5 17.5z m140-134.9c-23.4 0-52.3 5.4-80.7 15.2-31.2 10.7-59.7 26.1-78.2 42-16.3 14-19.4 23.9-18.7 25.9 0.7 2 9.3 7.8 30.7 8.9 24.4 1.2 56.3-4.3 87.5-15 31.2-10.7 59.7-26.1 78.2-42 16.3-14 19.4-23.9 18.7-25.9-0.7-2-9.3-7.8-30.7-8.9-2.2-0.1-4.5-0.2-6.8-0.2z" fill="#333333" p-id="9454"></path><path d="M745.237225 561.033496a135.1 54 11 1 0 20.607371-106.015736 135.1 54 11 1 0-20.607371 106.015736Z" fill="#FFEA00" p-id="9455"></path><path d="M804.2 588.3c-19.9 0-41.3-2.1-63-6.3-38-7.4-72.9-20.5-98.2-36.8-17.9-11.5-47.1-35.6-40.9-67.1 6.1-31.5 42.1-42.9 63.1-46.8 29.6-5.6 66.8-4.7 104.9 2.7 38 7.4 72.9 20.5 98.2 36.8 17.9 11.5 47.1 35.6 40.9 67.1-6.1 31.5-42.1 42.9-63.1 46.8-12.8 2.4-27 3.6-41.9 3.6z m-97.4-118c-12.3 0-23.7 0.9-33.7 2.9-21.1 4-28.8 11-29.2 13.1-0.4 2.1 4.1 11.4 22.2 23.1 20.6 13.3 50.9 24.5 83.3 30.8 32.4 6.3 64.7 7.3 88.7 2.7 21.1-4 28.8-11 29.2-13.1 0.4-2.1-4.1-11.4-22.2-23.1-20.6-13.3-50.9-24.5-83.3-30.8-18.9-3.7-37.8-5.6-55-5.6z" fill="#333333" p-id="9456"></path><path d="M664.887692 661.915798a135.1 54 41.003 1 0 70.858643-81.504925 135.1 54 41.003 1 0-70.858643 81.504925Z" fill="#FFEA00" p-id="9457"></path><path d="M778.4 740c-14.2 0-28.2-3.7-38.1-7.2-28.5-9.9-60.2-29.4-89.5-54.8-29.2-25.4-52.9-54.2-66.7-81-9.7-19-22.9-54.4-1.9-78.6 21-24.2 57.9-16 78.1-9 28.5 9.9 60.2 29.4 89.5 54.8 29.2 25.4 52.9 54.2 66.7 81 9.7 19 22.9 54.4 1.9 78.6-10.7 12.2-25.4 16.2-40 16.2zM622.3 544.8c-4.6 0-7.2 0.9-7.8 1.6-1.4 1.6-2.2 11.9 7.7 31.1 11.2 21.8 31.9 46.7 56.7 68.3 24.9 21.6 52.4 38.6 75.5 46.7 20.3 7.1 30.4 4.9 31.8 3.3 1.4-1.6 2.2-11.9-7.7-31.1-11.2-21.8-31.9-46.7-56.7-68.3s-52.4-38.6-75.5-46.7c-10.8-3.7-18.7-4.9-24-4.9z" fill="#333333" p-id="9458"></path><path d="M544.945819 709.040691a135.1 54 70.997 1 0 102.114165-35.166707 135.1 54 70.997 1 0-102.114165 35.166707Z" fill="#FFEA00" p-id="9459"></path><path d="M632.4 841.9c-24.5 0-46-20.1-57.7-33.6-19.7-22.8-37.5-55.5-50.1-92.2-12.6-36.6-18.7-73.4-17.3-103.5 1-21.3 7.3-58.6 37.6-69 30.3-10.4 58.2 15.1 72.1 31.2 19.7 22.8 37.5 55.5 50.1 92.2 12.6 36.6 18.7 73.4 17.3 103.5-1 21.3-7.3 58.6-37.6 69-4.8 1.6-9.6 2.4-14.4 2.4z m-72.8-258c-0.3 0-0.5 0-0.6 0.1-2 0.7-7.8 9.3-8.9 30.7-1.2 24.4 4.3 56.3 15 87.5s26.1 59.7 42 78.2c14 16.3 23.9 19.4 25.9 18.7 2-0.7 7.8-9.3 8.9-30.7 1.2-24.4-4.3-56.3-15-87.5s-26.1-59.7-42-78.2c-13-15-22.3-18.8-25.3-18.8z" fill="#333333" p-id="9460"></path><path d="M444.595599 832.926163a54 135.1 11 1 0 51.55659-265.235665 54 135.1 11 1 0-51.55659 265.235665Z" fill="#FFEA00" p-id="9461"></path><path d="M449.1 854.7c-2.8 0-5.6-0.3-8.5-0.8-31.5-6.1-42.9-42.1-46.8-63.1-5.6-29.6-4.7-66.8 2.7-104.9s20.5-72.9 36.8-98.2c11.5-17.9 35.6-47.1 67.1-40.9 31.5 6.1 42.9 42.1 46.8 63.1 5.6 29.6 4.7 66.8-2.7 104.9S524 787.7 507.7 813c-10.6 16.2-31.4 41.7-58.6 41.7z m42.7-266.1c-2.5 0-11.6 4.8-22.8 22.2-13.3 20.6-24.5 50.9-30.8 83.3-6.3 32.4-7.3 64.7-2.7 88.7 4 21.1 11 28.8 13.1 29.2 2.1 0.4 11.4-4.1 23.1-22.2 13.3-20.6 24.5-50.9 30.8-83.3 6.3-32.4 7.3-64.7 2.7-88.7-4-21.1-11-28.8-13.1-29.2h-0.3z" fill="#333333" p-id="9462"></path><path d="M268.570066 747.116329a54 135.1 41.003 1 0 177.277827-203.913247 54 135.1 41.003 1 0-177.277827 203.913247Z" fill="#FFEA00" p-id="9463"></path><path d="M286.5 774.4c-11.2 0-22.4-3-31.9-11.2-24.2-21-16-57.9-9-78.1 9.9-28.5 29.4-60.2 54.8-89.5s54.2-52.9 81-66.7c19-9.7 54.4-22.9 78.6-1.9 24.2 21 16 57.9 9 78.1-9.9 28.5-29.4 60.2-54.8 89.5s-54.2 52.9-81 66.7c-11.6 5.9-29.2 13.1-46.7 13.1z m141.2-216c-4.9 0-13.8 1.8-26.9 8.5-21.8 11.2-46.7 31.9-68.3 56.7-21.6 24.9-38.6 52.4-46.7 75.5-7.1 20.3-4.9 30.4-3.3 31.8 1.6 1.4 11.9 2.2 31.1-7.7 21.8-11.2 46.7-31.9 68.3-56.7 21.6-24.9 38.6-52.4 46.7-75.5 7.1-20.3 4.9-30.4 3.3-31.8-0.5-0.4-1.9-0.8-4.2-0.8z" fill="#333333" p-id="9464"></path><path d="M159.061546 584.685791a54 135.1 70.997 1 0 255.474513-87.981892 54 135.1 70.997 1 0-255.474513 87.981892Z" fill="#FFEA00" p-id="9465"></path><path d="M216.9 629.5c-3.1 0-6.1-0.1-9-0.2-21.3-1-58.6-7.3-69-37.6-10.4-30.3 15.1-58.2 31.2-72.1 22.8-19.7 55.5-37.5 92.2-50.1 36.6-12.6 73.4-18.7 103.5-17.3 21.3 1 58.6 7.3 69 37.6 10.4 30.3-15.1 58.2-31.2 72.1-22.8 19.7-55.5 37.5-92.2 50.1-33.1 11.4-66.2 17.5-94.5 17.5z m-37.6-51.7c0.7 2 9.3 7.8 30.7 8.9 24.4 1.2 56.3-4.3 87.5-15 31.2-10.7 59.7-26.1 78.2-42 16.3-14 19.4-23.9 18.7-25.9-0.7-2-9.3-7.8-30.7-8.9-24.4-1.2-56.3 4.3-87.5 15-31.2 10.7-59.7 26.1-78.2 42-16.3 14-19.4 23.9-18.7 25.9z" fill="#333333" p-id="9466"></path><path d="M267.788487 468.148373a135.1 54 11 1 0 20.607372-106.015736 135.1 54 11 1 0-20.607372 106.015736Z" fill="#FFEA00" p-id="9467"></path><path d="M326.7 495.5c-19.9 0-41.3-2.1-63-6.3-38-7.4-72.9-20.5-98.2-36.8-17.9-11.5-47.1-35.6-40.9-67.1 6.1-31.5 42.1-42.9 63.1-46.8 29.6-5.6 66.8-4.7 104.9 2.7 38 7.4 72.9 20.5 98.2 36.8 17.9 11.5 47.1 35.6 40.9 67.1s-42.1 42.9-63.1 46.8c-12.8 2.4-26.9 3.6-41.9 3.6z m-97.4-118c-12.3 0-23.7 0.9-33.7 2.9-21.1 4-28.8 11-29.2 13.1-0.4 2.1 4.1 11.4 22.2 23.1 20.6 13.3 50.9 24.5 83.3 30.8 32.4 6.3 64.7 7.3 88.7 2.7 21.1-4 28.8-11 29.2-13.1 0.4-2.1-4.1-11.4-22.2-23.1-20.6-13.3-50.9-24.5-83.3-30.8-18.9-3.7-37.8-5.6-55-5.6z" fill="#333333" p-id="9468"></path><path d="M297.784798 342.803446a135.1 54 41.003 1 0 70.858642-81.504925 135.1 54 41.003 1 0-70.858642 81.504925Z" fill="#FFEA00" p-id="9469"></path><path d="M411.3 420.9c-14.2 0-28.2-3.7-38.1-7.2-28.5-9.9-60.2-29.4-89.5-54.8-29.2-25.4-52.9-54.2-66.7-81-9.7-19-22.9-54.4-1.9-78.6 21-24.2 57.9-16 78.1-9 28.5 9.9 60.2 29.4 89.5 54.8 29.2 25.4 52.9 54.2 66.7 81 9.7 19 22.9 54.4 1.9 78.6-10.7 12.2-25.4 16.2-40 16.2zM255.2 225.7c-4.6 0-7.2 0.9-7.8 1.6-1.4 1.6-2.2 11.9 7.7 31.1 11.2 21.8 31.9 46.7 56.7 68.3 24.9 21.6 52.4 38.6 75.5 46.7 20.3 7.1 30.4 4.9 31.8 3.3 1.4-1.6 2.2-11.9-7.7-31.1-11.2-21.8-31.9-46.7-56.7-68.3-24.9-21.6-52.4-38.6-75.5-46.7-10.8-3.7-18.7-4.9-24-4.9z" fill="#333333" p-id="9470"></path><path d="M386.536774 249.168649a135.1 54 70.997 1 0 102.114165-35.166707 135.1 54 70.997 1 0-102.114165 35.166707Z" fill="#FFEA00" p-id="9471"></path><path d="M474.1 382c-24.5 0-46-20.1-57.7-33.6-19.7-22.8-37.5-55.5-50.1-92.2-12.6-36.6-18.7-73.4-17.3-103.5 1-21.3 7.3-58.6 37.6-69 30.3-10.4 58.2 15.1 72.1 31.2 19.7 22.8 37.5 55.5 50.1 92.2s18.7 73.4 17.3 103.5c-1 21.3-7.3 58.6-37.6 69-4.9 1.6-9.7 2.4-14.4 2.4z m-72.9-258c-0.3 0-0.5 0-0.6 0.1-2 0.7-7.8 9.3-8.9 30.7-1.2 24.4 4.3 56.3 15 87.5 10.7 31.2 26.1 59.7 42 78.2 14 16.3 23.9 19.4 25.9 18.7 2-0.7 7.8-9.3 8.9-30.7 1.2-24.4-4.3-56.3-15-87.5-10.7-31.2-26.1-59.7-42-78.2-12.9-15-22.3-18.8-25.3-18.8z" fill="#333333" p-id="9472"></path><path d="M534 416m-13.5 0a13.5 13.5 0 1 0 27 0 13.5 13.5 0 1 0-27 0Z" fill="#333333" p-id="9473"></path><path d="M519.5 462.6m-13.5 0a13.5 13.5 0 1 0 27 0 13.5 13.5 0 1 0-27 0Z" fill="#333333" p-id="9474"></path><path d="M565.5 458.1m-13.5 0a13.5 13.5 0 1 0 27 0 13.5 13.5 0 1 0-27 0Z" fill="#333333" p-id="9475"></path><path d="M543.1 503.1m-13.5 0a13.5 13.5 0 1 0 27 0 13.5 13.5 0 1 0-27 0Z" fill="#333333" p-id="9476"></path><path d="M496.6 504.2m-13.5 0a13.5 13.5 0 1 0 27 0 13.5 13.5 0 1 0-27 0Z" fill="#333333" p-id="9477"></path><path d="M472.2 469.8m-13.5 0a13.5 13.5 0 1 0 27 0 13.5 13.5 0 1 0-27 0Z" fill="#333333" p-id="9478"></path><path d="M484.9 425.4m-13.5 0a13.5 13.5 0 1 0 27 0 13.5 13.5 0 1 0-27 0Z" fill="#333333" p-id="9479"></path><path d="M462.8 742.5c-0.7 0-1.4-0.1-2.1-0.2-5.8-1.2-9.5-6.8-8.4-12.6l28.2-140.6c1.2-5.8 6.8-9.5 12.6-8.4 5.8 1.2 9.5 6.8 8.4 12.6l-28.2 140.6c-1.1 5.1-5.6 8.6-10.5 8.6zM338.2 678.2c-2.4 0-4.9-0.8-6.9-2.5-4.5-3.8-5-10.5-1.2-15l92.8-109.3c3.8-4.5 10.5-5 15-1.2s5 10.5 1.2 15l-92.8 109.3c-2.1 2.4-5.1 3.7-8.1 3.7zM254.9 559c-4.5 0-8.7-2.9-10.2-7.4-1.8-5.6 1.3-11.6 6.9-13.4l136.7-43.5c5.6-1.8 11.6 1.3 13.4 6.9s-1.3 11.6-6.9 13.4l-136.7 43.5c-1 0.4-2.1 0.5-3.2 0.5zM383.6 446.1c-0.7 0-1.4-0.1-2.1-0.2l-140.6-28.2c-5.8-1.2-9.5-6.8-8.4-12.6 1.2-5.8 6.8-9.5 12.6-8.4L385.7 425c5.8 1.2 9.5 6.8 8.4 12.6-1.1 5-5.5 8.5-10.5 8.5zM416.5 387.8c-2.6 0-5.3-1-7.3-2.9l-104.3-98.4c-4.3-4-4.5-10.8-0.4-15.1 4-4.3 10.8-4.5 15.1-0.4l104.3 98.4c4.3 4 4.5 10.8 0.4 15.1-2.2 2.2-5 3.3-7.8 3.3zM476.8 352.6c-4.4 0-8.6-2.8-10.1-7.3l-45.9-135.9c-1.9-5.6 1.1-11.6 6.7-13.5 5.6-1.9 11.6 1.1 13.5 6.7l45.9 135.9c1.9 5.6-1.1 11.6-6.7 13.5-1.1 0.4-2.3 0.6-3.4 0.6zM542 344.3c-0.8 0-1.5-0.1-2.3-0.2-5.8-1.3-9.4-6.9-8.1-12.7l30.6-140.1c1.3-5.8 6.9-9.4 12.7-8.1 5.8 1.3 9.4 6.9 8.1 12.7L552.4 336c-1.1 4.9-5.5 8.3-10.4 8.3zM603.5 372.2c-2.5 0-5-0.9-7-2.7-4.4-3.9-4.9-10.6-1-15.1l94.7-107.7c3.9-4.4 10.6-4.9 15.1-1 4.4 3.9 4.9 10.6 1 15.1l-94.7 107.7c-2.2 2.5-5.1 3.7-8.1 3.7zM638.6 430.2c-4.4 0-8.5-2.7-10-7.1-2-5.5 0.9-11.7 6.5-13.6l135.1-48.3c5.5-2 11.7 0.9 13.6 6.5 2 5.5-0.9 11.7-6.5 13.6l-135.1 48.3c-1.1 0.4-2.4 0.6-3.6 0.6zM781.3 522.3c-0.6 0-1.3-0.1-1.9-0.2l-141.1-25.7c-5.8-1.1-9.6-6.6-8.6-12.4 1.1-5.8 6.6-9.6 12.4-8.6l141.1 25.7c5.8 1.1 9.6 6.6 8.6 12.4-0.9 5.2-5.4 8.8-10.5 8.8zM721 652.6c-2.6 0-5.1-0.9-7.2-2.8l-106-96.6c-4.4-4-4.7-10.7-0.7-15.1s10.7-4.7 15.1-0.7l106 96.6c4.4 4 4.7 10.7 0.7 15.1-2.1 2.3-5 3.5-7.9 3.5zM606 732.5c-4.5 0-8.6-2.8-10.1-7.3L550 589.3c-1.9-5.6 1.1-11.6 6.7-13.5 5.6-1.9 11.6 1.1 13.5 6.7l45.9 135.9c1.9 5.6-1.1 11.6-6.7 13.5-1.2 0.4-2.3 0.6-3.4 0.6z" fill="#333333" p-id="9480"></path><path d="M462.8 742.5c-0.7 0-1.4-0.1-2.1-0.2-5.8-1.2-9.5-6.8-8.4-12.6l28.2-140.6c1.2-5.8 6.8-9.5 12.6-8.4 5.8 1.2 9.5 6.8 8.4 12.6l-28.2 140.6c-1.1 5.1-5.6 8.6-10.5 8.6zM338.2 678.2c-2.4 0-4.9-0.8-6.9-2.5-4.5-3.8-5-10.5-1.2-15l92.8-109.3c3.8-4.5 10.5-5 15-1.2s5 10.5 1.2 15l-92.8 109.3c-2.1 2.4-5.1 3.7-8.1 3.7zM254.9 559c-4.5 0-8.7-2.9-10.2-7.4-1.8-5.6 1.3-11.6 6.9-13.4l136.7-43.5c5.6-1.8 11.6 1.3 13.4 6.9s-1.3 11.6-6.9 13.4l-136.7 43.5c-1 0.4-2.1 0.5-3.2 0.5zM383.6 446.1c-0.7 0-1.4-0.1-2.1-0.2l-140.6-28.2c-5.8-1.2-9.5-6.8-8.4-12.6 1.2-5.8 6.8-9.5 12.6-8.4L385.7 425c5.8 1.2 9.5 6.8 8.4 12.6-1.1 5-5.5 8.5-10.5 8.5zM416.5 387.8c-2.6 0-5.3-1-7.3-2.9l-104.3-98.4c-4.3-4-4.5-10.8-0.4-15.1 4-4.3 10.8-4.5 15.1-0.4l104.3 98.4c4.3 4 4.5 10.8 0.4 15.1-2.2 2.2-5 3.3-7.8 3.3zM476.8 352.6c-4.4 0-8.6-2.8-10.1-7.3l-45.9-135.9c-1.9-5.6 1.1-11.6 6.7-13.5 5.6-1.9 11.6 1.1 13.5 6.7l45.9 135.9c1.9 5.6-1.1 11.6-6.7 13.5-1.1 0.4-2.3 0.6-3.4 0.6zM542 344.3c-0.8 0-1.5-0.1-2.3-0.2-5.8-1.3-9.4-6.9-8.1-12.7l30.6-140.1c1.3-5.8 6.9-9.4 12.7-8.1 5.8 1.3 9.4 6.9 8.1 12.7L552.4 336c-1.1 4.9-5.5 8.3-10.4 8.3zM603.5 372.2c-2.5 0-5-0.9-7-2.7-4.4-3.9-4.9-10.6-1-15.1l94.7-107.7c3.9-4.4 10.6-4.9 15.1-1 4.4 3.9 4.9 10.6 1 15.1l-94.7 107.7c-2.2 2.5-5.1 3.7-8.1 3.7zM638.6 430.2c-4.4 0-8.5-2.7-10-7.1-2-5.5 0.9-11.7 6.5-13.6l135.1-48.3c5.5-2 11.7 0.9 13.6 6.5 2 5.5-0.9 11.7-6.5 13.6l-135.1 48.3c-1.1 0.4-2.4 0.6-3.6 0.6zM781.3 522.3c-0.6 0-1.3-0.1-1.9-0.2l-141.1-25.7c-5.8-1.1-9.6-6.6-8.6-12.4 1.1-5.8 6.6-9.6 12.4-8.6l141.1 25.7c5.8 1.1 9.6 6.6 8.6 12.4-0.9 5.2-5.4 8.8-10.5 8.8zM721 652.6c-2.6 0-5.1-0.9-7.2-2.8l-106-96.6c-4.4-4-4.7-10.7-0.7-15.1s10.7-4.7 15.1-0.7l106 96.6c4.4 4 4.7 10.7 0.7 15.1-2.1 2.3-5 3.5-7.9 3.5zM606 732.5c-4.5 0-8.6-2.8-10.1-7.3L550 589.3c-1.9-5.6 1.1-11.6 6.7-13.5 5.6-1.9 11.6 1.1 13.5 6.7l45.9 135.9c1.9 5.6-1.1 11.6-6.7 13.5-1.2 0.4-2.3 0.6-3.4 0.6z" fill="#333333" p-id="9481"></path></svg>